<svg xmlns="http://www.w3.org/2000/svg" viewBox="0 0 512 512"><path fill="#ea580c" d="M 32 336 L 402.8 336 L 345.42 278.62 C 332.92 266.12 332.92 245.87 345.42 233.37 C 351.6 227.1 359.8 224 368 224 C 376.2 224 384.38 227.125 390.62 233.375 L 502.62 345.375 C 515.12 357.875 515.12 378.125 502.62 390.625 L 390.62 502.625 C 378.12 515.125 357.87 515.125 345.37 502.625 C 332.87 490.125 332.87 469.875 345.37 457.375 L 402.8 400 L 32 400 C 14.31 400 0 385.69 0 368 C 0 350.31 14.31 336 32 336 Z M 480 176 L 109.3 176 L 166.68 233.38 C 179.18 245.88 179.18 266.13 166.68 278.63 C 154.18 291.13 133.93 291.13 121.43 278.63 L 9.43 166.63 C -3.07 154.13 -3.07 133.88 9.43 121.38 L 121.43 9.38 C 127.6 3.1 135.8 0 144 0 C 152.2 0 160.38 3.125 166.62 9.375 C 179.12 21.875 179.12 42.125 166.62 54.625 L 109.3 112 L 480 112 C 497.69 112 512 126.31 512 144 C 512 161.69 497.7 176 480 176 Z" transform="matrix(0, 1, -1, 0, 512, 0)"></path></svg>