<?xml version="1.0" encoding="UTF-8" standalone="no"?>
<svg
   viewBox="0 0 512 512"
   version="1.1"
   id="svg27"
   xmlns="http://www.w3.org/2000/svg"
   xmlns:svg="http://www.w3.org/2000/svg"
   xmlns:rdf="http://www.w3.org/1999/02/22-rdf-syntax-ns#"
   xmlns:cc="http://creativecommons.org/ns#"
   xmlns:dc="http://purl.org/dc/elements/1.1/">
  <title
     id="title1296">consonant-green</title>
  <defs
     id="defs31" />
  <path
     d="M 55.770833,507.14909 4.1773125,451.32156 c -3.21665999,-3.48213 -4.07688999,-8.55591 -2.18578,-12.91852 1.8911,-4.36162 6.1763401,-7.18138 10.4675305,-7.18138 l 36.16805,0.0298 V 16.9375 C 48.627113,8.1375702 55.721223,1 64.948533,1 c 9.2273,0 15.42844,7.1375702 15.42844,15.9375 v 414.31404 h 35.718597 c 4.73618,0 9.0239,2.81876 10.91401,7.18138 1.88961,4.35962 1.02939,9.43739 -2.18776,12.91852 l -51.593527,55.82752 c -4.7079,5.09968 -12.74459,5.09968 -17.45746,-0.0298 z"
     id="path25"
     style="fill:#16a34a;fill-opacity:1;stroke-width:0.497053" />
  <path
     d="M 438.77083,4.8509082 387.17731,60.678448 c -3.21666,3.48212 -4.07689,8.5559 -2.18578,12.91852 1.8911,4.36161 6.17634,7.18137 10.46753,7.18137 l 36.16805,-0.0299 V 495.0625 c 0,8.79993 7.09411,15.9375 16.32142,15.9375 9.22729,0 15.42844,-7.13757 15.42844,-15.9375 V 80.748458 h 35.7186 c 4.73618,0 9.0239,-2.81876 10.91401,-7.18138 1.88961,-4.35962 1.02938,-9.43739 -2.18776,-12.91852 L 456.22829,4.8210382 c -4.70791,-5.09969002 -12.74459,-5.09969002 -17.45746,0.0299 z"
     id="path25-1"
     style="fill:#16a34a;fill-opacity:1;stroke-width:0.497053" />
  <metadata
     id="metadata1294">
    <rdf:RDF>
      <cc:Work
         rdf:about="">
        <dc:title>consonant-green</dc:title>
      </cc:Work>
    </rdf:RDF>
  </metadata>
</svg>
