<?xml version="1.0" encoding="UTF-8" standalone="no"?>
<svg
   viewBox="0 0 512 512"
   version="1.1"
   id="svg27"
   xmlns="http://www.w3.org/2000/svg"
   xmlns:svg="http://www.w3.org/2000/svg"
   xmlns:rdf="http://www.w3.org/1999/02/22-rdf-syntax-ns#"
   xmlns:cc="http://creativecommons.org/ns#"
   xmlns:dc="http://purl.org/dc/elements/1.1/">
  <title
     id="title1296">vowel-green</title>
  <defs
     id="defs31" />
  <path
     d="m 507.14909,73.22917 -55.82753,51.59352 c -3.48213,3.21666 -8.55591,4.07689 -12.91852,2.18578 -4.36162,-1.8911 -7.18138,-6.17634 -7.18138,-10.46753 l 0.0298,-36.168052 H 16.9375 C 8.1375696,80.372888 1,73.27878 1,64.051477 1,54.824173 8.1375696,48.623028 16.9375,48.623028 H 431.25154 V 12.904436 c 0,-4.7361857 2.81876,-9.023905 7.18138,-10.9140139 4.35962,-1.88961275 9.43739,-1.02938999 12.91852,2.1877639 l 55.82752,51.593522 c 5.09968,4.707908 5.09968,12.744592 -0.0298,17.457462 z"
     id="path25"
     style="fill:#16a34a;fill-opacity:1;stroke-width:0.497053" />
  <path
     d="m 4.8509067,456.22917 55.8275393,51.59352 c 3.482125,3.21666 8.555898,4.07689 12.918519,2.18578 4.361616,-1.8911 7.181378,-6.17634 7.181378,-10.46753 l -0.02988,-36.16805 H 495.0625 c 8.79993,0 15.9375,-7.09411 15.9375,-16.32142 0,-9.22729 -7.13757,-15.42844 -15.9375,-15.42844 H 80.748461 v -35.7186 c 0,-4.73618 -2.818767,-9.0239 -7.181378,-10.91401 -4.359624,-1.88961 -9.437391,-1.02938 -12.91852,2.18776 L 4.8210338,438.77171 c -5.0996813,4.70791 -5.0996813,12.74459 0.029883,17.45746 z"
     id="path25-1"
     style="fill:#16a34a;fill-opacity:1;stroke-width:0.497053" />
  <metadata
     id="metadata1294">
    <rdf:RDF>
      <cc:Work
         rdf:about="">
        <dc:title>vowel-green</dc:title>
      </cc:Work>
    </rdf:RDF>
  </metadata>
</svg>
